<svg xmlns="http://www.w3.org/2000/svg" version="1.1" xmlns:xlink="http://www.w3.org/1999/xlink" width="512" height="512" x="0" y="0" viewBox="0 0 187.334 187.334" style="enable-background:new 0 0 512 512" xml:space="preserve" class=""><g><path d="M182.334 148.042h-20.167V75.136a5 5 0 0 0-5-5H142.35a5 5 0 0 0-5 5v72.906h-4.183V62.803a5 5 0 0 0-5-5H113.35a5 5 0 0 0-5 5v85.239h-7.25a4.99 4.99 0 0 0 .075-2.087L80.926 35.123a4.999 4.999 0 0 0-5.817-4.02l-24.413 4.46c-.074.014-.142.045-.214.062a4.944 4.944 0 0 0-1.481-.249H24.183a5 5 0 0 0-5 5v107.667H10V34.292a5 5 0 1 0-10 0v118.75a5 5 0 0 0 5 5h177.334a5 5 0 1 0 0-10zM54 81.474l12.162 66.569H54V81.474z" fill="#ffffff" opacity="1" data-original="#000000" class=""></path></g></svg>